<svg width="160.02" height="125.53" viewBox="0 0 42.338 33.213" xmlns="http://www.w3.org/2000/svg"><defs><linearGradient id="prefix__a" x1="89.549" x2="104.1" y1="29.835" y2="15.282" gradientTransform="translate(-123.71 77.2)" gradientUnits="userSpaceOnUse"><stop stop-color="#4e4e4e" offset="0"/><stop stop-color="#363636" offset="1"/></linearGradient><linearGradient id="prefix__b" x1="19.513" x2="35.903" y1="95.008" y2="105.84" gradientUnits="userSpaceOnUse"><stop stop-color="#ececec" offset="0"/><stop stop-color="#ececec" offset="1"/></linearGradient></defs><g transform="translate(-14.55 -86.907)"><rect transform="rotate(-35.47)" x="-34.163" y="92.483" width="14.552" height="14.552" ry=".529" fill="url(#prefix__a)" fill-rule="evenodd"/><path d="M31.728 99.072a.528.528 0 00-.124.738l4.299 6.034 8.62-6.142-4.3-6.033a.528.528 0 00-.738-.124z" fill="url(#prefix__b)" fill-rule="evenodd"/><path d="M27.459 93.992l2.764 3.879c.17.238.499.294.738.124l1.185-.845-3.071-4.31-1.616 1.152z" fill="#2b2b2b" fill-rule="evenodd"/><path d="M29.075 92.841l3.07 4.31 6.573-4.683c.239-.17.294-.5.124-.738l-2.764-3.879-7.003 4.99z" fill="#ececec" fill-rule="evenodd"/><rect transform="rotate(-35.47)" x="-25.961" y="93.012" width="1.852" height="3.704" ry=".529" fill="#2b2b2b" fill-rule="evenodd"/><circle transform="rotate(-35.47)" cx="-20.604" cy="106.04" r=".397" fill="#ececec"/><path d="M39.158 120.12c3.915-10.791 1.323-15.081 1.323-15.081l-10.054.794s-3.12 7.624 1.852 14.288z" fill="#e5e5e5"/><path d="M35.374 104.79s-2.29 2.893-2.438 4.107c0 0 .818-.979 1.615-1.632 0 0 1.06-.018.569 2.02 0 0-1.18 3.074-1.146 10.84h3.52c.033-7.766-1.147-10.84-1.147-10.84-.492-2.038.569-2.02.569-2.02l1.354 1.858c.05-1.87-2.178-4.333-2.178-4.333z" fill="#262626"/><path d="M31.072 102.48s-1.328 1.703-1.078 2.5c.25.796 1.857 3.275 2.943 3.878.148-1.205 2.438-4.075 2.438-4.075-2.27.216-4.303-2.303-4.303-2.303z" fill="#e0e0e0"/><path d="M31.072 102.48s-2.813 1.502-3.828 2.976c-1.016 1.475-5.498 1.625-8.654 2.363-3.01.705-4.333 7.138-3.985 12.194l17.675.105c-4.926-6.6-1.919-14.119-1.861-14.261-.209-.362-.36-.675-.425-.878-.25-.796 1.078-2.5 1.078-2.5zM40.415 102.628l-.128.09c.31.388.783 1.095.61 1.647-.057.18-.17.493-.318.87.431.932 2.025 5.384-1.422 14.885l17.675-.105c.347-5.056-.975-11.489-3.985-12.194-3.156-.738-7.638-.888-8.654-2.363-.829-1.203-2.982-2.41-3.778-2.83z" fill="#262626"/><path d="M40.278 102.71s-1.774 1.536-4.185 2.078c.061.068 2.216 2.458 2.166 4.287 1.086-.602 2.378-3.923 2.628-4.72.25-.795-.609-1.645-.609-1.645z" fill="#e0e0e0"/></g></svg>
